<?xml version="1.0" encoding="UTF-8" standalone="no"?>
<!-- Created with Inkscape (http://www.inkscape.org/) -->

<svg
   width="218.89053mm"
   height="153.22337mm"
   viewBox="0 0 827.30281 579.11198"
   version="1.1"
   id="svg1"
   xml:space="preserve"
   xmlns:inkscape="http://www.inkscape.org/namespaces/inkscape"
   xmlns:sodipodi="http://sodipodi.sourceforge.net/DTD/sodipodi-0.dtd"
   xmlns="http://www.w3.org/2000/svg"
   xmlns:svg="http://www.w3.org/2000/svg"><sodipodi:namedview
     id="namedview1"
     pagecolor="#ffffff"
     bordercolor="#000000"
     borderopacity="0.25"
     inkscape:showpageshadow="2"
     inkscape:pageopacity="0.0"
     inkscape:pagecheckerboard="0"
     inkscape:deskcolor="#d1d1d1"
     inkscape:document-units="mm" /><defs
     id="defs1" /><g
     inkscape:label="Ebene 1"
     inkscape:groupmode="layer"
     id="layer1"
     transform="translate(-106.53974,-104.23003)"><path
       style="fill:#000000;stroke-width:1"
       d="M 134.11651,655.76524 106.53974,628.18849 V 393.78602 159.38356 l 27.57677,-27.57677 27.57675,-27.57676 h 358.49789 358.49789 l 27.5767,27.57676 27.5768,27.57677 v 234.40246 234.40247 l -27.5768,27.57675 -27.5767,27.57676 H 520.19115 161.69326 Z m 236.10252,-103.2425 c 84.25173,-95.95743 215.69251,-95.95743 299.94424,0 l 42.22269,48.08898 h 69.36315 69.36313 V 393.78602 186.96031 H 520.19115 189.27003 v 206.82571 206.8257 h 69.36316 69.36315 z m 94.8186,-144.94834 c -15.16721,-15.16722 -27.57676,-39.9863 -27.57676,-55.15352 0,-35.51285 47.21743,-82.73028 82.73028,-82.73028 35.51285,0 82.73029,47.21743 82.73029,82.73028 0,15.16722 -12.40956,39.9863 -27.57677,55.15352 -15.16722,15.16721 -39.9863,27.57676 -55.15352,27.57676 -15.16721,0 -39.9863,-12.40955 -55.15352,-27.57676 z"
       id="path4" /></g></svg>
