<?xml version="1.0" encoding="UTF-8" standalone="no"?>
<!-- Created with Inkscape (http://www.inkscape.org/) -->

<svg
   width="225.76286mm"
   height="158.03401mm"
   viewBox="0 0 853.27697 597.29392"
   version="1.1"
   id="svg1"
   xml:space="preserve"
   xmlns:inkscape="http://www.inkscape.org/namespaces/inkscape"
   xmlns:sodipodi="http://sodipodi.sourceforge.net/DTD/sodipodi-0.dtd"
   xmlns="http://www.w3.org/2000/svg"
   xmlns:svg="http://www.w3.org/2000/svg"><sodipodi:namedview
     id="namedview1"
     pagecolor="#ffffff"
     bordercolor="#000000"
     borderopacity="0.25"
     inkscape:showpageshadow="2"
     inkscape:pageopacity="0.0"
     inkscape:pagecheckerboard="0"
     inkscape:deskcolor="#d1d1d1"
     inkscape:document-units="mm" /><defs
     id="defs1" /><g
     inkscape:label="Ebene 1"
     inkscape:groupmode="layer"
     id="layer1"
     transform="translate(-77.271208,-93.67029)"><path
       style="fill:#000000;stroke-width:1"
       d="M 100.80725,664.95715 77.271214,638.95011 V 520.30879 401.66747 l 23.536036,-26.00705 23.53606,-26.00704 -23.53606,-26.00703 -23.536036,-26.00704 v -78.44847 -78.44845 l 26.007046,-23.53606 26.00702,-23.536037 h 377.09545 377.09544 l 23.5359,26.007027 23.5361,26.00704 v 75.97749 75.97746 l -23.5361,26.00704 -23.5359,26.00703 23.5359,26.00704 23.5361,26.00705 v 121.11231 121.11231 l -26.0071,23.53605 -26.007,23.53604 H 501.43863 124.34331 Z M 844.76816,523.8641 844.31599,442.09173 823.43635,414.48638 c -26.7297,-35.3397 -26.7297,-94.32628 0,-129.66598 11.48376,-15.18295 21.08309,-45.20419 21.33181,-66.71388 l 0.45232,-39.10853 H 503.90975 162.59891 l 0.45229,39.10853 c 0.24875,21.50969 9.84812,51.53093 21.33192,66.71388 11.48381,15.18295 20.87964,44.35778 20.87964,64.83298 0,20.4752 -9.39583,49.65005 -20.87964,64.833 l -20.87964,27.60535 -0.45228,81.77237 -0.45229,81.77238 H 503.90975 845.22048 Z M 290.59046,349.65338 v -42.66384 h 42.66384 42.66386 v 42.66384 42.66386 H 333.2543 290.59046 Z m 170.65538,0 v -42.66384 h 42.66391 42.66377 v 42.66384 42.66386 h -42.66377 -42.66391 z m 170.65536,0 v -42.66384 h 42.66391 42.66377 v 42.66384 42.66386 H 674.56511 631.9012 Z"
       id="path2" /></g></svg>
