<?xml version="1.0" encoding="UTF-8" standalone="no"?>
<!-- Created with Inkscape (http://www.inkscape.org/) -->

<svg
   width="142.49162mm"
   height="135.83931mm"
   viewBox="0 0 538.55102 513.40843"
   version="1.1"
   id="svg1"
   xml:space="preserve"
   sodipodi:docname="path4.svg"
   xmlns:inkscape="http://www.inkscape.org/namespaces/inkscape"
   xmlns:sodipodi="http://sodipodi.sourceforge.net/DTD/sodipodi-0.dtd"
   xmlns="http://www.w3.org/2000/svg"
   xmlns:svg="http://www.w3.org/2000/svg"><sodipodi:namedview
     id="namedview1"
     pagecolor="#ffffff"
     bordercolor="#000000"
     borderopacity="0.25"
     inkscape:showpageshadow="2"
     inkscape:pageopacity="0.0"
     inkscape:pagecheckerboard="0"
     inkscape:deskcolor="#d1d1d1"
     inkscape:document-units="mm" /><defs
     id="defs1" /><g
     inkscape:label="Ebene 1"
     inkscape:groupmode="layer"
     id="layer1"
     transform="translate(-224.78086,-142.65731)"><path
       style="fill:currentColor;stroke-width:0.999999"
       d="m 605.53977,634.92105 c -0.53202,-11.6296 -0.96975,-29.73702 -0.97274,-40.23871 l -0.006,-19.094 -61.95029,0.85641 c -34.07266,0.47103 -80.64667,0.23574 -103.49781,-0.52288 l -41.5475,-1.37928 -10.38687,-2.26661 c -35.90611,-7.83542 -63.77785,-34.3284 -76.69473,-72.90082 l -3.42957,-10.24134 0.0582,-20.77375 0.058,-20.77375 2.66384,-8.82546 c 10.82187,-35.85333 42.55235,-66.34212 77.53585,-74.50169 l 10.19529,-2.37796 95.70765,-1.02119 95.70764,-1.02121 8.52712,-3.34291 c 4.97458,-1.95019 11.91432,-6.43863 16.65741,-10.77353 l 8.1303,-7.43064 4.85825,-9.86452 4.85826,-9.86452 0.49907,-11.90592 0.49908,-11.90591 -3.26055,-8.6875 -3.26056,-8.68748 -9.10923,-9.27785 c -11.60552,-11.82035 -18.74697,-15.4243 -34.05145,-17.18418 -14.20628,-1.6336 -199.85994,-1.89488 -202.15514,-0.2845 -0.85457,0.59959 -3.41261,4.93972 -5.68454,9.64474 -2.37885,4.92645 -8.04308,12.47827 -13.3554,17.80607 -15.89002,15.9363 -33.45957,24.26079 -54.34019,25.7465 l -11.12879,0.79183 -10.61648,-2.87227 c -22.0859,-5.97527 -43.20682,-22.07582 -52.11572,-39.72794 -6.94453,-13.75994 -9.24371,-23.40807 -9.14848,-38.39008 0.16027,-25.21229 7.62354,-42.90743 24.74244,-58.66338 16.52861,-15.21268 34.19756,-22.30751 55.55458,-22.30751 h 11.50244 l 11.17633,3.54915 c 6.14699,1.95202 14.42816,5.63583 18.40261,8.18623 9.71407,6.2335 22.51818,19.89671 28.38124,30.28551 2.63757,4.6735 6.15498,9.22481 7.81648,10.11401 l 3.02089,1.61674 104.02577,1.16141 104.02577,1.16143 10.14173,2.3303 c 34.33695,7.88969 63.22876,34.73179 76.14439,70.74241 l 3.9724,11.07564 0.0632,21.51567 0.0632,21.51567 -5.17331,13.40585 c -6.81861,17.6694 -16.61304,32.09507 -30.94562,45.57814 l -11.70356,11.00987 -10.89436,5.30247 c -5.99189,2.91635 -15.90232,6.48258 -22.02316,7.92496 l -11.12879,2.62249 -94.96572,0.99263 -94.96573,0.99263 -7.56417,2.44584 c -14.55832,4.70735 -28.75517,19.08498 -33.93554,34.36764 -1.46778,4.33012 -2.54024,12.17015 -2.57576,18.82986 l -0.0608,11.41066 4.5376,9.6966 c 8.27194,17.67675 24.00151,29.28097 43.46252,32.06376 9.4866,1.35651 196.77432,2.36595 198.07271,1.06756 0.23065,-0.23066 0.89792,-17.95778 1.48282,-39.3936 0.58488,-21.43582 1.54929,-39.2745 2.14311,-39.64149 0.59383,-0.36702 3.66321,1.39565 6.82085,3.91701 3.15764,2.52136 36.79049,25.28413 74.73969,50.58393 68.12522,45.4174 74.19197,49.63675 74.19197,51.59961 0,0.98523 -20.88946,15.11649 -100.90107,68.25733 -22.44309,14.90589 -43.58888,29.35588 -46.99067,32.11107 -3.40181,2.75519 -6.80351,5.00946 -7.55935,5.00946 -0.75585,0 -1.80955,-9.51512 -2.34157,-21.14471 z M 316.90766,248.61779 c 2.15627,-1.10131 6.16264,-4.83333 8.90304,-8.29336 l 4.98254,-6.29097 v -11.1888 -11.18882 l -3.37445,-4.73085 c -1.85594,-2.60197 -7.02685,-6.51782 -11.49092,-8.70189 l -8.11647,-3.97102 -6.56364,0.98428 c -13.68017,2.05146 -24.61466,14.69935 -24.61466,28.47168 v 6.97699 l 3.69647,6.30754 c 7.69605,13.13232 23.68067,18.21254 36.57809,11.62522 z"
       id="path3"
       inkscape:export-filename="route.png"
       inkscape:export-xdpi="96"
       inkscape:export-ydpi="96" /></g></svg>
